<?xml version="1.0" encoding="UTF-8" standalone="no"?>
<!DOCTYPE svg PUBLIC "-//W3C//DTD SVG 1.1//EN" "http://www.w3.org/Graphics/SVG/1.1/DTD/svg11.dtd">
<svg width="100%" height="100%" viewBox="0 0 2000 2000" version="1.1" xmlns="http://www.w3.org/2000/svg" xmlns:xlink="http://www.w3.org/1999/xlink" xml:space="preserve" xmlns:serif="http://www.serif.com/" style="fill-rule:evenodd;clip-rule:evenodd;stroke-linejoin:round;stroke-miterlimit:2;">
    <g transform="matrix(1.18742,0,0,1.13916,467.041,-278.325)">
        <ellipse cx="512" cy="1188" rx="779" ry="812" style="fill:rgb(212,212,216);"/>
    </g>
    <g transform="matrix(1521.35,0,0,1228.45,-150.614,856.228)">
        <path d="M0.099,-0.001L0.099,-0.697L0.138,-0.697L0.624,-0.224L0.624,-0.697L0.661,-0.697L0.661,-0.001L0.099,-0.001Z" style="fill:rgb(24,24,27);fill-rule:nonzero;"/>
    </g>
    <g transform="matrix(1598.13,0,0,1228.45,748.43,855)">
        <path d="M0.658,-0L0.123,-0L0.123,-0.696L0.394,-0.696C0.452,-0.696 0.499,-0.686 0.536,-0.665C0.572,-0.645 0.6,-0.618 0.62,-0.583C0.64,-0.548 0.65,-0.51 0.65,-0.468C0.65,-0.416 0.634,-0.37 0.602,-0.329C0.57,-0.288 0.53,-0.26 0.481,-0.247L0.658,-0ZM0.186,-0.659L0.458,-0.279C0.503,-0.288 0.54,-0.311 0.569,-0.346C0.598,-0.381 0.613,-0.422 0.613,-0.468C0.613,-0.505 0.604,-0.538 0.586,-0.568C0.568,-0.598 0.543,-0.621 0.51,-0.637C0.481,-0.652 0.442,-0.659 0.395,-0.659L0.186,-0.659ZM0.16,-0.635L0.16,-0.276L0.417,-0.276L0.16,-0.635ZM0.16,-0.037L0.588,-0.037L0.442,-0.24L0.411,-0.239L0.16,-0.239L0.16,-0.037Z" style="fill:rgb(24,24,27);fill-rule:nonzero;"/>
    </g>
    <g transform="matrix(1518.65,0,0,1202.53,-119.973,1781.96)">
        <path d="M0.46,-0.52L0.264,-0.52L0.264,-0.696L0.642,-0.696L0.642,-0.283C0.642,-0.221 0.63,-0.167 0.605,-0.123C0.58,-0.078 0.547,-0.043 0.504,-0.02C0.46,0.003 0.413,0.015 0.36,0.015C0.309,0.015 0.263,0.002 0.22,-0.023C0.177,-0.048 0.142,-0.083 0.117,-0.126C0.092,-0.169 0.079,-0.215 0.079,-0.266L0.261,-0.266C0.261,-0.235 0.27,-0.21 0.288,-0.189C0.305,-0.168 0.329,-0.158 0.359,-0.158C0.391,-0.158 0.416,-0.168 0.434,-0.189C0.451,-0.209 0.46,-0.239 0.46,-0.278L0.46,-0.52Z" style="fill:rgb(24,24,27);fill-rule:nonzero;"/>
    </g>
    <g transform="matrix(1583.33,0,0,1228.45,755,1800)">
        <path d="M0.12,-0L0.12,-0.696L0.379,-0.696C0.43,-0.696 0.476,-0.683 0.52,-0.658C0.563,-0.633 0.597,-0.599 0.622,-0.556C0.647,-0.513 0.66,-0.466 0.66,-0.415L0.66,-0.281C0.66,-0.23 0.647,-0.184 0.622,-0.141C0.597,-0.097 0.563,-0.063 0.52,-0.038C0.476,-0.013 0.43,-0 0.379,-0L0.12,-0Z" style="fill:rgb(24,24,27);fill-rule:nonzero;"/>
    </g>
</svg>
